<svg width="48" height="39" viewBox="0 0 48 39" fill="none" xmlns="http://www.w3.org/2000/svg">
<g id="Layer_1">
<path id="Vector" d="M5.49999 11.5587L5.55407 11.4521C5.72487 11.1153 5.96945 10.8537 6.29378 10.6902C6.61147 10.53 6.96621 10.4836 7.32958 10.5049L5.49999 11.5587ZM5.49999 11.5587L5.5 11.6783M5.49999 11.5587L5.5 11.6783M5.5 11.6783L5.50088 24.3205L5.50089 24.4393L5.55426 24.5453C5.73056 24.8956 5.98531 25.1588 6.31852 25.3194C6.6427 25.4756 7.00234 25.5161 7.36447 25.4947L7.36478 25.4947C7.70406 25.4744 8.03385 25.4792 8.3842 25.4843C8.54724 25.4867 8.71473 25.4891 8.88971 25.4891L8.89078 25.4891C9.33784 25.4881 9.76479 25.3833 10.0825 25.0951C10.409 24.7988 10.5368 24.3853 10.5368 23.9469V23.9409V23.9349V23.9289V23.9229V23.9169V23.9109V23.9049V23.8989V23.893V23.887V23.881V23.875V23.869V23.863V23.857V23.851V23.845V23.839V23.833V23.827V23.821V23.815V23.809V23.803V23.797V23.791V23.785V23.779V23.773V23.767V23.761V23.7551V23.7491V23.7431V23.7371V23.7311V23.7251V23.7191V23.7131V23.7071V23.7011V23.6951V23.6891V23.6831V23.6771V23.6711V23.6651V23.6591V23.6531V23.6471V23.6411V23.6351V23.6292V23.6232V23.6172V23.6112V23.6052V23.5992V23.5932V23.5872V23.5812V23.5752V23.5692V23.5632V23.5572V23.5512V23.5452V23.5392V23.5332V23.5272V23.5212V23.5152V23.5092V23.5032V23.4973V23.4913V23.4853V23.4793V23.4733V23.4673V23.4613V23.4553V23.4493V23.4433V23.4373V23.4313V23.4253V23.4193V23.4133V23.4073V23.4013V23.3953V23.3893V23.3833V23.3773V23.3714V23.3654V23.3594V23.3534V23.3474V23.3414V23.3354V23.3294V23.3234V23.3174V23.3114V23.3054V23.2994V23.2934V23.2874V23.2814V23.2754V23.2694V23.2634V23.2574V23.2515V23.2455V23.2395V23.2335V23.2275V23.2215V23.2155V23.2095V23.2035V23.1975V23.1915V23.1855V23.1795V23.1735V23.1675V23.1615V23.1555V23.1495V23.1435V23.1376V23.1316V23.1256V23.1196V23.1136V23.1076V23.1016V23.0956V23.0896V23.0836V23.0776V23.0716V23.0656V23.0596V23.0536V23.0476V23.0416V23.0356V23.0296V23.0236V23.0177V23.0117V23.0057V22.9997V22.9937V22.9877V22.9817V22.9757V22.9697V22.9637V22.9577V22.9517V22.9457V22.9397V22.9337V22.9277V22.9217V22.9157V22.9097V22.9038V22.8978V22.8918V22.8858V22.8798V22.8738V22.8678V22.8618V22.8558V22.8498V22.8438V22.8378V22.8318V22.8258V22.8198V22.8138V22.8078V22.8018V22.7959V22.7899V22.7839V22.7779V22.7719V22.7659V22.7599V22.7539V22.7479V22.7419V22.7359V22.7299V22.7239V22.7179V22.7119V22.7059V22.6999V22.6939V22.688V22.682V22.676V22.67V22.664V22.658V22.652V22.646V22.64V22.634V22.628V22.622V22.616V22.61V22.604V22.598V22.592V22.586V22.5801V22.5741V22.5681V22.5621V22.5561V22.5501V22.5441V22.5381V22.5321V22.5261V22.5201V22.5141V22.5081V22.5021V22.4961V22.4901V22.4841V22.4782V22.4722V22.4662V22.4602V22.4542V22.4482V22.4422V22.4362V22.4302V22.4242V22.4182V22.4122V22.4062V22.4002V22.3942V22.3882V22.3822V22.3763V22.3703V22.3643V22.3583V22.3523V22.3463V22.3403V22.3343V22.3283V22.3223V22.3163V22.3103V22.3043V22.2983V22.2923V22.2863V22.2803V22.2744V22.2684V22.2624V22.2564V22.2504V22.2444V22.2384V22.2324V22.2264V22.2204V22.2144V22.2084V22.2024V22.1964V22.1904V22.1844V22.1785V22.1725V22.1665V22.1605V22.1545V22.1485V22.1425V22.1365V22.1305V22.1245V22.1185V22.1125V22.1065V22.1005V22.0945V22.0885V22.0826V22.0766V22.0706V22.0646V22.0586V22.0526V22.0466V22.0406V22.0346V22.0286V22.0226V22.0166V22.0106V22.0046V21.9986V21.9926V21.9867V21.9807V21.9747V21.9687V21.9627V21.9567V21.9507V21.9447V21.9387V21.9327V21.9267V21.9207V21.9147V21.9087V21.9027V21.8967V21.8908V21.8848V21.8788V21.8728V21.8668V21.8608V21.8548V21.8488V21.8428V21.8368V21.8308V21.8248V21.8188V21.8128V21.8068V21.8008V21.7949V21.7889V21.7829V21.7769V21.7709V21.7649V21.7589V21.7529V21.7469V21.7409V21.7349V21.7289V21.7229V21.7169V21.7109V21.705V21.699V21.693V21.687V21.681V21.675V21.669V21.663V21.657V21.651V21.645V21.639V21.633V21.627V21.621V21.6151V21.6091V21.6031V21.5971V21.5911V21.5851V21.5791V21.5731V21.5671V21.5611V21.5551V21.5491V21.5431V21.5371V21.5311V21.5252V21.5192V21.5132V21.5072V21.5012V21.4952V21.4892V21.4832V21.4772V21.4712V21.4652V21.4592V21.4532V21.4472V21.4413V21.4353V21.4293V21.4233V21.4173V21.4113V21.4053V21.3993V21.3933V21.3873V21.3813V21.3753V21.3693V21.3633V21.3573V21.3514V21.3454V21.3394V21.3334V21.3274V21.3214V21.3154V21.3094V21.3034V21.2974V21.2914V21.2854V21.2794V21.2734V21.2675V21.2615V21.2555V21.2495V21.2435V21.2375V21.2315V21.2255V21.2195V21.2135V21.2075V21.2015V21.1955V21.1895V21.1836V21.1776V21.1716V21.1656V21.1596V21.1536V21.1476V21.1416V21.1356V21.1296V21.1236V21.1176V21.1116V21.1056V21.0997V21.0937V21.0877V21.0817V21.0757V21.0697V21.0637V21.0577V21.0517V21.0457V21.0397V21.0337V21.0277V21.0217V21.0158V21.0098V21.0038V20.9978V20.9918V20.9858V20.9798V20.9738V20.9678V20.9618V20.9558V20.9498V20.9438V20.9379V20.9319V20.9259V20.9199V20.9139V20.9079V20.9019V20.8959V20.8899V20.8839V20.8779V20.6243M5.5 11.6783L10.5368 20.6243M10.5368 20.6243H12H12.5V20.1243V15.8648V15.3648H12H10.5368V15.3612V15.3545V15.3478V15.3411V15.3344V15.3277V15.321V15.3143V15.3076V15.3009V15.2941V15.2874V15.2807V15.274V15.2673V15.2606V15.2539V15.2472V15.2405V15.2338V15.2271V15.2204V15.2137V15.2069V15.2002V15.1935V15.1868V15.1801V15.1734V15.1667V15.16V15.1533V15.1466V15.1399V15.1332V15.1265V15.1198V15.113V15.1063V15.0996V15.0929V15.0862V15.0795V15.0728V15.0661V15.0594V15.0527V15.046V15.0393V15.0326V15.0258V15.0191V15.0124V15.0057V14.999V14.9923V14.9856V14.9789V14.9722V14.9655V14.9588V14.9521V14.9454V14.9386V14.9319V14.9252V14.9185V14.9118V14.9051V14.8984V14.8917V14.885V14.8783V14.8716V14.8649V14.8582V14.8515V14.8447V14.838V14.8313V14.8246V14.8179V14.8112V14.8045V14.7978V14.7911V14.7844V14.7777V14.771V14.7643V14.7575V14.7508V14.7441V14.7374V14.7307V14.724V14.7173V14.7106V14.7039V14.6972V14.6905V14.6838V14.6771V14.6704V14.6636V14.6569V14.6502V14.6435V14.6368V14.6301V14.6234V14.6167V14.61V14.6033V14.5966V14.5899V14.5832V14.5765V14.5697V14.563V14.5563V14.5496V14.5429V14.5362V14.5295V14.5228V14.5161V14.5094V14.5027V14.496V14.4893V14.4826V14.4758V14.4691V14.4624V14.4557V14.449V14.4423V14.4356V14.4289V14.4222V14.4155V14.4088V14.4021V14.3954V14.3887V14.382V14.3752V14.3685V14.3618V14.3551V14.3484V14.3417V14.335V14.3283V14.3216V14.3149V14.3082V14.3015V14.2948V14.2881V14.2813V14.2746V14.2679V14.2612V14.2545V14.2478V14.2411V14.2344V14.2277V14.221V14.2143V14.2076V14.2009V14.1942V14.1875V14.1807V14.174V14.1673V14.1606V14.1539V14.1472V14.1405V14.1338V14.1271V14.1204V14.1137V14.107V14.1003V14.0936V14.0869V14.0801V14.0734V14.0667V14.06V14.0533V14.0466V14.0399V14.0332V14.0265V14.0198V14.0131V14.0064V13.9997V13.993V13.9863V13.9795V13.9728V13.9661V13.9594V13.9527V13.946V13.9393V13.9326V13.9259V13.9192V13.9125V13.9058V13.8991V13.8924V13.8857V13.879V13.8722V13.8655V13.8588V13.8521V13.8454V13.8387V13.832V13.8253V13.8186V13.8119V13.8052V13.7985V13.7918V13.7851V13.7784V13.7716V13.7649V13.7582V13.7515V13.7448V13.7381V13.7314V13.7247V13.718V13.7113V13.7046V13.6979V13.6912V13.6845V13.6778V13.6711V13.6643V13.6576V13.6509V13.6442V13.6375V13.6308V13.6241V13.6174V13.6107V13.604V13.5973V13.5906V13.5839V13.5772V13.5705V13.5638V13.557V13.5503V13.5436V13.5369V13.5302V13.5235V13.5168V13.5101V13.5034V13.4967V13.49V13.4833V13.4766V13.4699V13.4632V13.4565V13.4498V13.443V13.4363V13.4296V13.4229V13.4162V13.4095V13.4028V13.3961V13.3894V13.3827V13.376V13.3693V13.3626V13.3559V13.3492V13.3425V13.3357V13.329V13.3223V13.3156V13.3089V13.3022V13.2955V13.2888V13.2821V13.2754V13.2687V13.262V13.2553V13.2486V13.2419V13.2352V13.2285V13.2217V13.215V13.2083V13.2016V13.1949V13.1882V13.1815V13.1748V13.1681V13.1614V13.1547V13.148V13.1413V13.1346V13.1279V13.1212V13.1145V13.1077V13.101V13.0943V13.0876V13.0809V13.0742V13.0675V13.0608V13.0541V13.0474V13.0407V13.034V13.0273V13.0206V13.0139V13.0072V13.0005V12.9938V12.987V12.9803V12.9736V12.9669V12.9602V12.9535V12.9468V12.9401V12.9334V12.9267V12.92V12.9133V12.9066V12.8999V12.8932V12.8865V12.8798V12.8731V12.8663V12.8596V12.8529V12.8462V12.8395V12.8328V12.8261V12.8194V12.8127V12.806V12.7993V12.7926V12.7859V12.7792V12.7725V12.7658V12.7591V12.7524V12.7456V12.7389V12.7322V12.7255V12.7188V12.7121V12.7054V12.6987V12.692V12.6853V12.6786V12.6719V12.6652V12.6585V12.6518V12.6451V12.6384V12.6317V12.625V12.6182V12.6115V12.6048V12.5981V12.5914V12.5847V12.578V12.5713V12.5646V12.5579V12.5512V12.5445V12.5378V12.5311V12.5244V12.5177V12.511V12.5043V12.4976V12.4908V12.4841V12.4774V12.4707V12.464V12.4573V12.4506V12.4439V12.4372V12.4305V12.4238V12.4171V12.4104V12.4037V12.397V12.3903V12.3836V12.3769V12.3702V12.3635V12.3567V12.35V12.3433V12.3366V12.3299V12.3232V12.3165V12.3098V12.3031V12.2964V12.2897V12.283V12.2763V12.2696V12.2629V12.2562V12.2495V12.2428V12.2361V12.2294V12.2226V12.2159V12.2092V12.2025V12.1958V12.1891V12.1824V12.1757V12.169V12.1623V12.1556V12.1489V12.1422V12.1355V12.1288V12.1221V12.1154V12.1087V12.102V12.0953V12.0885L10.5368 12.0818L10.5368 12.0812C10.5362 11.6346 10.4179 11.2073 10.0822 10.9026C9.75628 10.6069 9.3153 10.5097 8.85529 10.5097C8.67892 10.5097 8.50999 10.5122 8.34545 10.5146C7.99683 10.5197 7.66795 10.5245 7.32982 10.5049L10.5368 20.6243Z" stroke="black"/>
<path id="Vector_2" d="M37.2448 24.4961L37.2446 24.4961C36.7834 24.4753 36.2995 24.4802 35.8329 24.485C35.5556 24.4878 35.2844 24.4906 35.0276 24.4878L35.0259 24.4878C34.6716 24.4853 34.4356 24.3995 34.3015 24.2999C34.1817 24.2109 34.1224 24.0987 34.1216 23.9448V23.9385V23.9312V23.9238V23.9164V23.9091V23.9017V23.8943V23.887V23.8796V23.8722V23.8649V23.8575V23.8501V23.8428V23.8354V23.828V23.8207V23.8133V23.8059V23.7986V23.7912V23.7838V23.7765V23.7691V23.7617V23.7544V23.747V23.7396V23.7323V23.7249V23.7175V23.7102V23.7028V23.6954V23.688V23.6807V23.6733V23.6659V23.6586V23.6512V23.6438V23.6365V23.6291V23.6217V23.6144V23.607V23.5996V23.5922V23.5849V23.5775V23.5701V23.5628V23.5554V23.548V23.5407V23.5333V23.5259V23.5185V23.5112V23.5038V23.4964V23.4891V23.4817V23.4743V23.467V23.4596V23.4522V23.4448V23.4375V23.4301V23.4227V23.4154V23.408V23.4006V23.3932V23.3859V23.3785V23.3711V23.3638V23.3564V23.349V23.3416V23.3343V23.3269V23.3195V23.3122V23.3048V23.2974V23.29V23.2827V23.2753V23.2679V23.2606V23.2532V23.2458V23.2384V23.2311V23.2237V23.2163V23.2089V23.2016V23.1942V23.1868V23.1795V23.1721V23.1647V23.1573V23.15V23.1426V23.1352V23.1279V23.1205V23.1131V23.1057V23.0984V23.091V23.0836V23.0762V23.0689V23.0615V23.0541V23.0468V23.0394V23.032V23.0246V23.0173V23.0099V23.0025V22.9951V22.9878V22.9804V22.973V22.9656V22.9583V22.9509V22.9435V22.9362V22.9288V22.9214V22.914V22.9067V22.8993V22.8919V22.8845V22.8772V22.8698V22.8624V22.855V22.8477V22.8403V22.8329V22.8256V22.8182V22.8108V22.8034V22.7961V22.7887V22.7813V22.7739V22.7666V22.7592V22.7518V22.7444V22.7371V22.7297V22.7223V22.715V22.7076V22.7002V22.6928V22.6855V22.6781V22.6707V22.6633V22.656V22.6486V22.6412V22.6338V22.6265V22.6191V22.6117V22.6043V22.597V22.5896V22.5822V22.5749V22.5675V22.5601V22.5527V22.5454V22.538V22.5306V22.5232V22.5159V22.5085V22.5011V22.4937V22.4864V22.479V22.4716V22.4642V22.4569V22.4495V22.4421V22.4347V22.4274V22.42V22.4126V22.4053V22.3979V22.3905V22.3831V22.3758V22.3684V22.361V22.3536V22.3463V22.3389V22.3315V22.3241V22.3168V22.3094V22.302V22.2947V22.2873V22.2799V22.2725V22.2652V22.2578V22.2504V22.243V22.2357V22.2283V22.2209V22.2135V22.2062V22.1988V22.1914V22.184V22.1767V22.1693V22.1619V22.1546V22.1472V22.1398V22.1324V22.1251V22.1177V22.1103V22.1029V22.0956V22.0882V22.0808V22.0735V22.0661V22.0587V22.0513V22.044V22.0366V22.0292V22.0218V22.0145V22.0071V21.9997V21.9924V21.985V21.9776V21.9702V21.9629V21.9555V21.9481V21.9408V21.9334V21.926V21.9186V21.9113V21.9039V21.8965V21.8891V21.8818V21.8744V21.867V21.8597V21.8523V21.8449V21.8375V21.8302V21.8228V21.8154V21.8081V21.8007V21.7933V21.7859V21.7786V21.7712V21.7638V21.7565V21.7491V21.7417V21.7343V21.727V21.7196V21.7122V21.7049V21.6975V21.6901V21.6827V21.6754V21.668V21.6606V21.6533V21.6459V21.6385V21.6312V21.6238V21.6164V21.609V21.6017V21.5943V21.5869V21.5796V21.5722V21.5648V21.5575V21.5501V21.5427V21.5353V21.528V21.5206V21.5132V21.5059V21.4985V21.4911V21.4838V21.4764V21.469V21.4617V21.4543V21.4469V21.4395V21.4322V21.4248V21.4174V21.4101V21.4027V21.3953V21.388V21.3806V21.3732V21.3659V21.3585V21.3511V21.3438V21.3364V21.329V21.3217V21.3143V21.3069V21.2996V21.2922V21.2848V21.2775V21.2701V21.2627V21.2554V21.248V21.2406V21.2333V21.2259V21.2185V21.2112V21.2038V21.1964V21.1891V21.1817V21.1743V21.167V21.1596V21.1522V21.1449V21.1375V21.1301V21.1228V21.1154V21.108V21.1007V21.0933V21.0859V21.0786V21.0712V21.0638V21.0565V21.0491V21.0417V21.0344V21.027V21.0196V21.0123V21.0049V20.9976V20.9902V20.9828V20.9755V20.9681V20.9607V20.9534V20.946V20.9386V20.9313V20.9239V20.9166V20.9092V20.9018V20.8945V20.8871V20.8797V20.8724V20.865V20.8577V20.8503V20.8429V20.8356V20.8282V20.8208V20.8135V20.8061V20.7988V20.7914V20.784V20.7767V20.7693V20.762V20.7546V20.7472V20.7399V20.7325V20.7252V20.7178V20.7104V20.7031V20.6957V20.6884V20.681V20.6736V20.6663V20.6589V20.6516V20.6442V20.6368V20.6295V20.6221V20.6148V20.6074V20.6V20.5927V20.5853V20.578V20.5706V20.5633V20.5559V20.5485V20.5412V20.5338V20.5265V20.5191V20.5118V20.5044V20.497V20.4897V20.4823V20.475V20.4676V20.4603V20.4529V20.4455V20.4382V20.4308V20.4235V20.4161V20.4088V20.4014V20.3941V20.3867V20.3793V20.372V20.3646V20.3573V20.3499V20.3426V20.3352V20.3279V20.3205V20.3132V20.3058V20.2984V20.2911V20.2837V20.2764V20.269V20.2617V20.2543V20.247V20.2396V20.2323V20.2249V20.2176V20.2102V20.2029V20.1955V20.1882V20.1808V20.1735V19.7845V19.2845H33.6216H31.5V15.7376H33.6216H34.1216V15.2376V14.8599V14.8526V14.8453V14.838V14.8307V14.8234V14.8161V14.8088V14.8015V14.7941V14.7868V14.7795V14.7722V14.7649V14.7576V14.7503V14.743V14.7357V14.7284V14.7211V14.7138V14.7065V14.6992V14.6919V14.6846V14.6773V14.67V14.6627V14.6553V14.648V14.6407V14.6334V14.6261V14.6188V14.6115V14.6042V14.5969V14.5896V14.5823V14.575V14.5677V14.5604V14.5531V14.5458V14.5385V14.5312V14.5239V14.5166V14.5092V14.5019V14.4946V14.4873V14.48V14.4727V14.4654V14.4581V14.4508V14.4435V14.4362V14.4289V14.4216V14.4143V14.407V14.3997V14.3924V14.3851V14.3778V14.3705V14.3631V14.3558V14.3485V14.3412V14.3339V14.3266V14.3193V14.312V14.3047V14.2974V14.2901V14.2828V14.2755V14.2682V14.2609V14.2536V14.2463V14.239V14.2317V14.2244V14.2171V14.2097V14.2024V14.1951V14.1878V14.1805V14.1732V14.1659V14.1586V14.1513V14.144V14.1367V14.1294V14.1221V14.1148V14.1075V14.1002V14.0929V14.0856V14.0783V14.071V14.0637V14.0563V14.049V14.0417V14.0344V14.0271V14.0198V14.0125V14.0052V13.9979V13.9906V13.9833V13.976V13.9687V13.9614V13.9541V13.9468V13.9395V13.9322V13.9249V13.9176V13.9103V13.903V13.8957V13.8883V13.881V13.8737V13.8664V13.8591V13.8518V13.8445V13.8372V13.8299V13.8226V13.8153V13.808V13.8007V13.7934V13.7861V13.7788V13.7715V13.7642V13.7569V13.7496V13.7423V13.735V13.7276V13.7203V13.713V13.7057V13.6984V13.6911V13.6838V13.6765V13.6692V13.6619V13.6546V13.6473V13.64V13.6327V13.6254V13.6181V13.6108V13.6035V13.5962V13.5889V13.5816V13.5743V13.567V13.5597V13.5523V13.545V13.5377V13.5304V13.5231V13.5158V13.5085V13.5012V13.4939V13.4866V13.4793V13.472V13.4647V13.4574V13.4501V13.4428V13.4355V13.4282V13.4209V13.4136V13.4063V13.399V13.3917V13.3844V13.3771V13.3697V13.3624V13.3551V13.3478V13.3405V13.3332V13.3259V13.3186V13.3113V13.304V13.2967V13.2894V13.2821V13.2748V13.2675V13.2602V13.2529V13.2456V13.2383V13.231V13.2237V13.2164V13.2091V13.2018V13.1945V13.1871V13.1798V13.1725V13.1652V13.1579V13.1506V13.1433V13.136V13.1287V13.1214V13.1141V13.1068V13.0995V13.0922V13.0849V13.0776V13.0703V13.063V13.0557V13.0484V13.0411V13.0338V13.0265V13.0192V13.0119V13.0046V12.9973V12.9899V12.9826V12.9753V12.968V12.9607V12.9534V12.9461V12.9388V12.9315V12.9242V12.9169V12.9096V12.9023V12.895V12.8877V12.8804V12.8731V12.8658V12.8585V12.8512V12.8439V12.8366V12.8293V12.822V12.8147V12.8074V12.8001V12.7928V12.7854V12.7781V12.7708V12.7635V12.7562V12.7489V12.7416V12.7343V12.727V12.7197V12.7124V12.7051V12.6978V12.6905V12.6832V12.6759V12.6686V12.6613V12.654V12.6467V12.6394V12.6321V12.6248V12.6175V12.6102V12.6029V12.5956V12.5883V12.581V12.5737V12.5663V12.559V12.5517V12.5444V12.5371V12.5298V12.5225V12.5152V12.5079V12.5006V12.4933V12.486V12.4787V12.4714V12.4641V12.4568V12.4495V12.4422V12.4349V12.4276V12.4203V12.413V12.4057V12.3984V12.3911V12.3838V12.3765V12.3692V12.3619V12.3546V12.3473V12.34V12.3326V12.3253V12.318V12.3107V12.3034V12.2961V12.2888V12.2815V12.2742V12.2669V12.2596V12.2523V12.245V12.2377V12.2304V12.2231V12.2158V12.2085V12.2012V12.1939V12.1866V12.1793V12.172V12.1647V12.1574V12.1501V12.1428V12.1355V12.1282V12.1209V12.1136V12.1063V12.099V12.0917V12.0843V12.077V12.0697V12.0624V12.0551V12.0478V12.0405V12.0332V12.0259V12.0186V12.0113V12.004V11.9967V11.9894V11.9821V11.9748V11.9675V11.9602V11.9529V11.9456V11.9383V11.931V11.9237V11.9164V11.9091V11.9018V11.8945V11.8872V11.8799V11.8726V11.8653V11.858V11.8507V11.8434V11.8361V11.8288V11.8215V11.8141V11.8068V11.7995V11.7922V11.7849V11.7776V11.7703V11.763V11.7557V11.7484V11.7411V11.7338V11.7265V11.7192V11.7119V11.7046V11.6973V11.69V11.6827V11.6754V11.6681V11.6608V11.6535V11.6462V11.6389V11.6316V11.6243V11.617V11.6097V11.6024V11.5951V11.5878V11.5805V11.5732V11.5659V11.5586V11.5513V11.544V11.5367V11.5294V11.5221V11.5147V11.5074V11.5001V11.4928V11.4855V11.4782V11.4709V11.4636V11.4563V11.449V11.4417V11.4344V11.4271V11.4198V11.4125V11.4052V11.3979V11.3906V11.3833V11.376V11.3687V11.3614V11.3541V11.3468V11.3395V11.3322V11.3249V11.3176V11.3103V11.303V11.2957V11.2884V11.2811V11.2738V11.2665V11.2592V11.2519V11.2446V11.2373V11.23V11.2227V11.2154V11.2081V11.2008V11.1935V11.1862V11.1789V11.1715V11.1642V11.1569V11.1496V11.1423V11.135V11.1277V11.1204C34.1216 10.8966 34.1946 10.7785 34.3023 10.6984C34.4338 10.6006 34.6838 10.5125 35.1121 10.5117C35.3155 10.5117 35.5239 10.514 35.7355 10.5163C36.2318 10.5217 36.7451 10.5272 37.2495 10.5042L37.2505 10.5042C37.9079 10.473 38.2769 10.6123 38.4999 10.8852L38.4954 24.1133C38.2704 24.3872 37.9005 24.526 37.2448 24.4961ZM37.2268 10.0048C38.0493 9.96569 38.6498 10.1636 39 10.7271L37.2268 10.0048Z" stroke="black"/>
<path id="Vector_3" d="M18.7546 29.3391V29.794H18.2546C18.2546 30.1091 18.2544 30.4212 18.2543 30.7312C18.254 31.4993 18.2536 32.2547 18.2554 33.0121C18.257 33.6328 18.6276 34 19.2565 34H26.3579C26.9859 33.9992 27.3582 33.632 27.3582 33.0105V30.0411V29.7156C27.3974 29.7051 27.4306 29.6967 27.4605 29.6891C27.4972 29.6797 27.5289 29.6716 27.5605 29.6628C29.6606 29.0932 31 27.3598 31 25.1999V22.5934C30.8338 22.6771 30.6671 22.7506 30.5 22.8137M18.7546 29.3391L18.9182 23.2017C18.3314 23.2081 17.96 23.5809 17.9543 24.1664C17.9505 24.5264 17.9505 24.8864 17.9543 25.2463C17.9608 25.7879 18.3314 26.1862 18.8372 26.2006C19.3431 26.215 19.7485 25.8127 19.7736 25.2615V25.5007H20.2486M18.7546 29.3391L18.3017 29.2962M18.7546 29.3391L18.3017 29.2962M30.5 22.8137V22.8095V22.8039V22.7983V22.7926V22.787V22.7814V22.7758V22.7701V22.7645V22.7589V22.7533V22.7476V22.742V22.7364V22.7308V22.7251V22.7195V22.7139V22.7083V22.7026V22.697V22.6914V22.6858V22.6801V22.6745V22.6689V22.6633V22.6576V22.652V22.6464V22.6408V22.6351V22.6295V22.6239V22.6183V22.6126V22.607V22.6014V22.5958V22.5901V22.5845V22.5789V22.5733V22.5677V22.562V22.5564V22.5508V22.5452V22.5395V22.5339V22.5283V22.5227V22.517V22.5114V22.5058V22.5002V22.4945V22.4889V22.4833V22.4777V22.472V22.4664V22.4608V22.4552V22.4495V22.4439V22.4383V22.4327V22.427V22.4214V22.4158V22.4102V22.4045V22.3989V22.3933V22.3877V22.382V22.3764V22.3708V22.3652V22.3595V22.3539V22.3483V22.3427V22.337V22.3314V22.3258V22.3202C30.5 22.3039 30.4995 22.2899 30.4985 22.2755C29.3564 22.7628 28.206 22.707 27.0475 22.1082M30.5 22.8137C29.3121 23.2624 28.1035 23.1897 26.9072 22.5976C26.3544 22.8767 25.7522 23.0464 25.1342 23.0975M30.5 22.8137V22.8151V22.8208V22.8264V22.832V22.8376V22.8433V22.8489V22.8545V22.8601V22.8658V22.8714V22.877V22.8826V22.8882V22.8939V22.8995V22.9051V22.9107V22.9164V22.922V22.9276V22.9332V22.9389V22.9445V22.9501V22.9557V22.9614V22.967V22.9726V22.9782V22.9839V22.9895V22.9951V23.0007V23.0064V23.012V23.0176V23.0232V23.0289V23.0345V23.0401V23.0457V23.0514V23.057V23.0626V23.0682V23.0739V23.0795V23.0851V23.0907V23.0964V23.102V23.1076V23.1132V23.1189V23.1245V23.1301V23.1357V23.1414V23.147V23.1526V23.1582V23.1639V23.1695V23.1751V23.1807V23.1863V23.192V23.1976V23.2032V23.2088V23.2145V23.2201V23.2257V23.2313V23.237V23.2426V23.2482V23.2538V23.2595V23.2651V23.2707V23.2763V23.282V23.2876V23.2932V23.2988V23.3045V23.3101V23.3157V23.3213V23.327V23.3326V23.3382V23.3438V23.3495V23.3551V23.3607V23.3663V23.372V23.3776V23.3832V23.3888V23.3945V23.4001V23.4057V23.4113V23.417V23.4226V23.4282V23.4338V23.4395V23.4451V23.4507V23.4563V23.462V23.4676V23.4732V23.4788V23.4844V23.4901V23.4957V23.5013V23.5069V23.5126V23.5182V23.5238V23.5294V23.5351V23.5407V23.5463V23.5519V23.5576V23.5632V23.5688V23.5744V23.5801V23.5857V23.5913V23.5969V23.6026V23.6082V23.6138V23.6194V23.6251V23.6307V23.6363V23.6419V23.6476V23.6532V23.6588V23.6644V23.6701V23.6757V23.6813V23.6869V23.6926V23.6982V23.7038V23.7094V23.7151V23.7207V23.7263V23.7319V23.7376V23.7432V23.7488V23.7544V23.7601V23.7657V23.7713V23.7769V23.7826V23.7882V23.7938V23.7994V23.805V23.8107V23.8163V23.8219V23.8275V23.8332V23.8388V23.8444V23.85V23.8557V23.8613V23.8669V23.8725V23.8782V23.8838V23.8894V23.895V23.9007V23.9063V23.9119V23.9175V23.9232V23.9288V23.9344V23.94V23.9457V23.9513V23.9569V23.9625V23.9682V23.9738V23.9794V23.985V23.9907V23.9963V24.0019V24.0075V24.0132V24.0188V24.0244V24.03V24.0357V24.0413V24.0469V24.0525V24.0582V24.0638V24.0694V24.075V24.0807V24.0863V24.0919V24.0975V24.1031V24.1088V24.1144V24.12V24.1256V24.1313V24.1369V24.1425V24.1481V24.1538V24.1594V24.165V24.1706V24.1763V24.1819V24.1875V24.1931V24.1988V24.2044V24.21V24.2156V24.2213V24.2269V24.2325V24.2381V24.2438V24.2494V24.255V24.2606V24.2663V24.2719V24.2775V24.2831V24.2888V24.2944V24.3V24.3056V24.3113V24.3169V24.3225V24.3281V24.3338V24.3394V24.345V24.3506V24.3563V24.3619V24.3675V24.3731V24.3788V24.3844V24.39V24.3956V24.4012V24.4069V24.4125V24.4181V24.4237V24.4294V24.435V24.4406V24.4462V24.4519V24.4575V24.4631V24.4687V24.4744V24.48V24.4856V24.4912V24.4969V24.5025V24.5081V24.5137V24.5194V24.525V24.5306V24.5362V24.5419V24.5475V24.5531V24.5587V24.5644V24.57V24.5756V24.5812V24.5869V24.5925V24.5981V24.6037V24.6094V24.615V24.6206V24.6262V24.6319V24.6375V24.6431V24.6487V24.6544V24.66V24.6656V24.6712V24.6769V24.6825V24.6881V24.6937V24.6993V24.705V24.7106V24.7162V24.7218V24.7275V24.7331V24.7387V24.7443V24.75V24.7556V24.7612V24.7668V24.7725V24.7781V24.7837V24.7893V24.795V24.8006V24.8062V24.8118V24.8175V24.8231V24.8287V24.8343V24.84V24.8456V24.8512V24.8568V24.8625V24.8681V24.8737V24.8793V24.885V24.8906V24.8962V24.9018V24.9075V24.9131V24.9187V24.9243V24.93V24.9356V24.9412V24.9468V24.9525V24.9581V24.9637V24.9693V24.975V24.9806V24.9862V24.9918V24.9974V25.0031V25.0087V25.0143V25.0199V25.0256V25.0312V25.0368V25.0424V25.0481V25.0537V25.0593V25.0649V25.0706V25.0762V25.0818V25.0874V25.0931V25.0987V25.1043V25.1099V25.1156V25.1212V25.1268V25.1324V25.1381V25.1437V25.1493V25.1549V25.1606V25.1662V25.1718V25.1774V25.1831V25.1887V25.1943V25.1999C30.5 27.1307 29.3151 28.6689 27.4297 29.1802L27.4297 29.1802L27.4264 29.1811C27.3964 29.1894 27.3737 29.1952 27.344 29.2027C27.3161 29.2098 27.282 29.2185 27.2299 29.2323L26.8582 29.331V29.7156V30.0411V30.0469V30.0527V30.0585V30.0643V30.0701V30.0759V30.0817V30.0875V30.0933V30.0991V30.1049V30.1107V30.1165V30.1223V30.1281V30.1339V30.1397V30.1455V30.1513V30.1571V30.1629V30.1687V30.1745V30.1803V30.1861V30.1919V30.1977V30.2035V30.2093V30.2151V30.2209V30.2267V30.2325V30.2383V30.2441V30.2499V30.2557V30.2615V30.2673V30.2731V30.2789V30.2847V30.2905V30.2963V30.3021V30.3079V30.3137V30.3195V30.3252V30.331V30.3368V30.3426V30.3484V30.3542V30.36V30.3658V30.3716V30.3774V30.3832V30.389V30.3948V30.4006V30.4064V30.4122V30.418V30.4238V30.4296V30.4354V30.4412V30.447V30.4528V30.4586V30.4644V30.4702V30.476V30.4818V30.4876V30.4934V30.4992V30.505V30.5108V30.5166V30.5224V30.5282V30.534V30.5398V30.5456V30.5514V30.5572V30.563V30.5688V30.5746V30.5804V30.5862V30.592V30.5978V30.6036V30.6094V30.6152V30.621V30.6268V30.6326V30.6384V30.6442V30.65V30.6558V30.6616V30.6674V30.6732V30.679V30.6848V30.6906V30.6964V30.7022V30.708V30.7138V30.7196V30.7254V30.7312V30.737V30.7428V30.7486V30.7544V30.7602V30.766V30.7718V30.7776V30.7834V30.7892V30.795V30.8008V30.8066V30.8124V30.8182V30.824V30.8298V30.8356V30.8414V30.8472V30.853V30.8588V30.8646V30.8704V30.8762V30.882V30.8878V30.8936V30.8994V30.9052V30.911V30.9168V30.9226V30.9284V30.9342V30.94V30.9458V30.9516V30.9574V30.9632V30.969V30.9748V30.9806V30.9864V30.9922V30.998V31.0038V31.0096V31.0154V31.0212V31.027V31.0328V31.0386V31.0444V31.0502V31.056V31.0618V31.0676V31.0734V31.0792V31.085V31.0908V31.0966V31.1024V31.1082V31.114V31.1198V31.1256V31.1314V31.1372V31.143V31.1488V31.1546V31.1604V31.1662V31.172V31.1778V31.1836V31.1894V31.1952V31.201V31.2068V31.2126V31.2184V31.2242V31.23V31.2358V31.2416V31.2474V31.2532V31.259V31.2648V31.2706V31.2764V31.2822V31.288V31.2938V31.2996V31.3054V31.3112V31.317V31.3228V31.3286V31.3344V31.3402V31.346V31.3518V31.3576V31.3634V31.3692V31.375V31.3808V31.3866V31.3924V31.3982V31.404V31.4098V31.4156V31.4214V31.4272V31.433V31.4388V31.4446V31.4504V31.4562V31.462V31.4678V31.4736V31.4794V31.4852V31.491V31.4968V31.5026V31.5084V31.5142V31.52V31.5258V31.5316V31.5374V31.5432V31.549V31.5548V31.5606V31.5664V31.5722V31.578V31.5838V31.5896V31.5954V31.6012V31.607V31.6128V31.6186V31.6244V31.6302V31.636V31.6418V31.6476V31.6534V31.6592V31.665V31.6708V31.6766V31.6824V31.6882V31.694V31.6998V31.7056V31.7114V31.7172V31.723V31.7288V31.7346V31.7404V31.7462V31.752V31.7578V31.7636V31.7694V31.7752V31.781V31.7868V31.7926V31.7984V31.8042V31.81V31.8158V31.8216V31.8274V31.8332V31.839V31.8448V31.8506V31.8564V31.8622V31.868V31.8738V31.8796V31.8854V31.8912V31.897V31.9028V31.9086V31.9144V31.9202V31.926V31.9318V31.9376V31.9434V31.9492V31.955V31.9608V31.9666V31.9724V31.9782V31.984V31.9898V31.9956V32.0014V32.0072V32.013V32.0188V32.0246V32.0304V32.0362V32.042V32.0478V32.0536V32.0594V32.0652V32.071V32.0768V32.0826V32.0884V32.0942V32.1V32.1058V32.1116V32.1174V32.1232V32.129V32.1348V32.1406V32.1464V32.1522V32.158V32.1638V32.1696V32.1754V32.1812V32.187V32.1928V32.1986V32.2044V32.2102V32.216V32.2218V32.2276V32.2334V32.2392V32.245V32.2508V32.2566V32.2624V32.2682V32.274V32.2798V32.2856V32.2914V32.2972V32.303V32.3088V32.3146V32.3204V32.3262V32.332V32.3378V32.3436V32.3494V32.3552V32.361V32.3668V32.3726V32.3784V32.3842V32.39V32.3958V32.4016V32.4074V32.4132V32.419V32.4248V32.4306V32.4364V32.4422V32.448V32.4538V32.4596V32.4654V32.4712V32.477V32.4828V32.4886V32.4944V32.5002V32.506V32.5118V32.5176V32.5234V32.5292V32.535V32.5408V32.5466V32.5524V32.5582V32.564V32.5698V32.5756V32.5814V32.5872V32.593V32.5988V32.6046V32.6104V32.6162V32.622V32.6278V32.6336V32.6394V32.6452V32.651V32.6568V32.6626V32.6684V32.6742V32.68V32.6858V32.6916V32.6974V32.7032V32.709V32.7148V32.7206V32.7264V32.7322V32.738V32.7438V32.7496V32.7554V32.7612V32.767V32.7728V32.7785V32.7843V32.7901V32.7959V32.8017V32.8075V32.8133V32.8191V32.8249V32.8307V32.8365V32.8423V32.8481V32.8539V32.8597V32.8655V32.8713V32.8771V32.8829V32.8887V32.8945V32.9003V32.9061V32.9119V32.9177V32.9235V32.9293V32.9351V32.9409V32.9467V32.9525V32.9583V32.9641V32.9699V32.9757V32.9815V32.9873V32.9931V32.9989V33.0047V33.0105L25.1342 23.0975M27.0475 22.1082C26.9949 22.0895 26.939 22.0818 26.8833 22.0855C26.8276 22.0892 26.7733 22.1043 26.7237 22.1298C26.1942 22.4045 25.6122 22.5664 25.0153 22.6049M27.0475 22.1082L26.9034 22.3869L26.8803 22.4316L26.7237 22.1298L26.8797 22.4328L26.9113 22.4913L27.0475 22.1082ZM25.0153 22.6049C24.9611 22.6129 24.9091 22.632 24.8627 22.6609C24.8163 22.6898 24.7765 22.728 24.7458 22.7729M25.0153 22.6049L25.037 22.9405L25.0373 22.9451L24.7458 22.7729M25.0153 22.6049L25.0679 22.9631L25.1764 23.0272C25.1624 23.0508 25.1484 23.0742 25.1342 23.0975M24.7458 22.7729C23.8686 24.2584 22.5656 25.0007 20.8257 25.0007H20.2736V25.0014V25.002V25.0026V25.0032V25.0039V25.0045V25.0051V25.0057V25.0063V25.0069V25.0076V25.0082V25.0088V25.0094V25.01V25.0106V25.0112V25.0118V25.0125V25.0131V25.0137V25.0143V25.0149V25.0155V25.0161V25.0167V25.0173V25.0179V25.0185V25.0191V25.0197V25.0203V25.0209V25.0215V25.0221V25.0227V25.0233V25.0239V25.0245V25.0251V25.0257V25.0263V25.0269V25.0275V25.0281V25.0287V25.0293V25.0299V25.0304V25.031V25.0316V25.0322V25.0328V25.0334V25.034V25.0346V25.0351V25.0357V25.0363V25.0369V25.0375V25.0381V25.0386V25.0392V25.0398V25.0404V25.041V25.0415V25.0421V25.0427V25.0433V25.0438V25.0444V25.045V25.0456V25.0461V25.0467V25.0473V25.0478V25.0484V25.049V25.0496V25.0501V25.0507V25.0513V25.0518V25.0524V25.053V25.0535V25.0541V25.0547V25.0552V25.0558V25.0563V25.0569V25.0575V25.058V25.0586V25.0591V25.0597V25.0603V25.0608V25.0614V25.0619V25.0625V25.063V25.0636V25.0642V25.0647V25.0653V25.0658V25.0664V25.0669V25.0675V25.068V25.0686V25.0691V25.0697V25.0702V25.0708V25.0713V25.0719V25.0724V25.0729V25.0735V25.074V25.0746V25.0751V25.0757V25.0762V25.0768V25.0773V25.0778V25.0784V25.0789V25.0795V25.08V25.0805V25.0811V25.0816V25.0821V25.0827V25.0832V25.0838V25.0843V25.0848V25.0854V25.0859V25.0864V25.087V25.0875V25.088V25.0886V25.0891V25.0896V25.0901V25.0907V25.0912V25.0917V25.0923V25.0928V25.0933V25.0938V25.0944V25.0949V25.0954V25.0959V25.0965V25.097V25.0975V25.098V25.0986V25.0991V25.0996V25.1001V25.1006V25.1012V25.1017V25.1022V25.1027V25.1032V25.1038V25.1043V25.1048V25.1053V25.1058V25.1063V25.1069V25.1074V25.1079V25.1084V25.1089V25.1094V25.1099V25.1105V25.111V25.1115V25.112V25.1125V25.113V25.1135V25.114V25.1145V25.1151V25.1156V25.1161V25.1166V25.1171V25.1176V25.1181V25.1186V25.1191V25.1196V25.1201V25.1206V25.1211V25.1216V25.1221V25.1226V25.1231V25.1237V25.1242V25.1247V25.1252V25.1257V25.1262V25.1267V25.1272V25.1277V25.1282V25.1287V25.1292V25.1297V25.1302V25.1307V25.1312V25.1316V25.1321V25.1326V25.1331V25.1336V25.1341V25.1346V25.1351V25.1356V25.1361V25.1366V25.1371V25.1376V25.1381V25.1386V25.1391V25.1396V25.1401V25.1405V25.141V25.1415V25.142V25.1425V25.143V25.1435V25.144V25.1445V25.145V25.1454V25.1459V25.1464V25.1469V25.1474V25.1479V25.1484V25.1489V25.1493V25.1498V25.1503V25.1508V25.1513V25.1518V25.1522V25.1527V25.1532V25.1537V25.1542V25.1547V25.1552V25.1556V25.1561V25.1566V25.1571V25.1576V25.158V25.1585V25.159V25.1595V25.16V25.1604V25.1609V25.1614V25.1619V25.1624V25.1628V25.1633V25.1638V25.1643V25.1648V25.1652V25.1657V25.1662V25.1667V25.1672V25.1676V25.1681V25.1686V25.1691V25.1695V25.17V25.1705V25.171V25.1714V25.1719V25.1724V25.1729V25.1733V25.1738V25.1743V25.1748V25.1752V25.1757V25.1762V25.1767V25.1771V25.1776V25.1781V25.1785V25.179V25.1795V25.18V25.1804V25.1809V25.1814V25.1818V25.1823V25.1828V25.1833V25.1837V25.1842V25.1847V25.1851V25.1856V25.1861V25.1866V25.187V25.1875V25.188V25.1884V25.1889V25.1894V25.1898V25.1903V25.1908V25.1912V25.1917V25.1922V25.1927V25.1931V25.1936V25.1941V25.1945V25.195V25.1955V25.1959V25.1964V25.1969V25.1973V25.1978V25.1983V25.1987V25.1992V25.1997V25.2001V25.2006V25.2011V25.2015V25.202V25.2025V25.2029V25.2034V25.2039V25.2043V25.2048V25.2053V25.2057V25.2062V25.2066V25.2071V25.2076V25.208V25.2085V25.209V25.2094V25.2099V25.2104V25.2108V25.2113V25.2118V25.2122V25.2127V25.2132V25.2136V25.2141V25.2145V25.215V25.2155V25.2159V25.2164V25.2169V25.2173V25.2178V25.2183V25.2187V25.2192V25.2197V25.2201V25.2206V25.221V25.2215V25.222V25.2224V25.2229V25.2234V25.2238V25.2243V25.2248V25.2252V25.2257V25.2261V25.2266V25.2271V25.2275V25.228V25.2285V25.2289V25.2294V25.2299V25.2303V25.2308V25.2313V25.2317V25.2322V25.2326V25.2331V25.2336V25.234V25.2345V25.235V25.2354V25.2359V25.2364V25.2368V25.2373V25.2377V25.2382V25.2387V25.2391V25.2396V25.2401V25.2405V25.241V25.2415V25.2419V25.2424V25.2429V25.2433V25.2438V25.2443V25.2447V25.2452V25.2457V25.2461V25.2466V25.247V25.2475V25.248V25.2484V25.2489V25.2494V25.2498V25.2503V25.2508V25.2512V25.2517V25.2522V25.2526V25.2531V25.2536V25.254V25.2545V25.255V25.2554V25.2559V25.2564V25.2568V25.2573V25.2578V25.2582V25.2587V25.2592V25.2597V25.2601V25.2606V25.2611V25.2615V25.2729L20.2731 25.2843C20.2697 25.3578 20.2615 25.4301 20.2486 25.5007M24.7458 22.7729L25.0391 22.9729L25.1342 23.0975M20.2486 25.5007H20.8257C22.7137 25.5007 24.1662 24.6899 25.1342 23.0975M20.2486 25.5007C20.1232 26.1883 19.5596 26.7214 18.823 26.7004C18.022 26.6776 17.4637 26.0342 17.4544 25.2523L17.4543 25.2516C17.4505 24.8882 17.4505 24.5249 17.4543 24.1616L25.1342 23.0975M20.1924 22.7017L20.1903 22.7017H20.1878H20.1853H20.1828H20.1804H20.1779H20.1754H20.1729H20.1704H20.1679H20.1654H20.1629H20.1604H20.1579H20.1555H20.153H20.1505H20.148H20.1455H20.143H20.1405H20.138H20.1355H20.1331H20.1306H20.1281H20.1256H20.1231H20.1206H20.1181H20.1156H20.1131H20.1106H20.1082H20.1057H20.1032H20.1007H20.0982H20.0957H20.0932H20.0907H20.0882H20.0858H20.0833H20.0808H20.0783H20.0758H20.0733H20.0708H20.0683H20.0658H20.0633H20.0609H20.0584H20.0559H20.0534H20.0509H20.0484H20.0459H20.0434H20.0409H20.0385H20.036H20.0335H20.031H20.0285H20.026H20.0235H20.021H20.0185H20.016H20.0136H20.0111H20.0086H20.0061H20.0036H20.0011H19.9986H19.9961H19.9936H19.9912H19.9887H19.9862H19.9837H19.9812H19.9787H19.9762H19.9737H19.9712H19.9687H19.9663H19.9638H19.9613H19.9588H19.9563H19.9538H19.9513H19.9488H19.9463H19.9439H19.9414H19.9389H19.9364H19.9339H19.9314H19.9289H19.9264H19.9239H19.9214H19.919H19.9165H19.914H19.9115H19.909H19.9065H19.904H19.9015H19.899H19.8966H19.8941H19.8916H19.8891H19.8866H19.8841H19.8816H19.8791H19.8766H19.8741H19.8717H19.8692H19.8667H19.8642H19.8617H19.8592H19.8567H19.8542H19.8517H19.8493H19.8468H19.8443H19.8418H19.8393H19.8368H19.8343H19.8318H19.8293H19.8268H19.8244H19.8219H19.8194H19.8169H19.8144H19.8119H19.8094H19.8069H19.8044H19.802H19.7995H19.797H19.7945H19.792H19.7895H19.787H19.7845H19.782H19.7795H19.7771H19.7746H19.7721H19.7696H19.7671H19.7646H19.7621H19.7596H19.7571H19.7547H19.7522H19.7497H19.7472H19.7447H19.7422H19.7397H19.7372H19.7347H19.7322H19.7298H19.7273H19.7248H19.7223H19.7198H19.7173H19.7148H19.7123H19.7098H19.7073H19.7049H19.7024H19.6999H19.6974H19.6949H19.6924H19.6899H19.6874H19.6849H19.6825H19.68H19.6775H19.675H19.6725H19.67H19.6675H19.665H19.6625H19.66H19.6576H19.6551H19.6526H19.6501H19.6476H19.6451H19.6426H19.6401H19.6376H19.6352H19.6327H19.6302H19.6277H19.6252H19.6227H19.6202H19.6177H19.6152H19.6127H19.6103H19.6078H19.6053H19.6028H19.6003H19.5978H19.5953H19.5928H19.5903H19.5879H19.5854H19.5829H19.5804H19.5779H19.5754H19.5729H19.5704H19.5679H19.5654H19.563H19.5605H19.558H19.5555H19.553H19.5505H19.548H19.5455H19.543H19.5406H19.5381H19.5356H19.5331H19.5306H19.5281H19.5256H19.5231H19.5206H19.5181H19.5157H19.5132H19.5107H19.5082H19.5057H19.5032H19.5007H19.4982H19.4957H19.4933H19.4908H19.4883H19.4858H19.4833H19.4808H19.4783H19.4758H19.4733H19.4708H19.4684H19.4659H19.4634H19.4609H19.4584H19.4559H19.4534H19.4509H19.4484H19.446H19.4435H19.441H19.4385H19.436H19.4335H19.431H19.4285H19.426H19.4235H19.4211H19.4186H19.4161H19.4136H19.4111H19.4086H19.4061H19.4036H19.4011H19.3987H19.3962H19.3937H19.3912H19.3887H19.3862H19.3837H19.3812H19.3787H19.3762H19.3738H19.3713H19.3688H19.3663H19.3638H19.3613H19.3588H19.3563H19.3538H19.3514H19.3489H19.3464H19.3439H19.3414H19.3389H19.3364H19.3339H19.3314H19.3289H19.3265H19.324H19.3215H19.319H19.3165H19.314H19.3115H19.309H19.3065H19.304H19.3016H19.2991H19.2966H19.2941H19.2916H19.2891H19.2866H19.2841H19.2816H19.2792H19.2767H19.2742H19.2717H19.2692H19.2667H19.2642H19.2617H19.2592H19.2567H19.2543H19.2518H19.2493H19.2468H19.2443H19.2418H19.2393H19.2368H19.2343H19.2319H19.2294H19.2269H19.2244H19.2219H19.2194H19.2169H19.2144H19.2119H19.2094H19.207H19.2045H19.202H19.1995H19.197H19.1945H19.192H19.1895H19.187H19.1846H19.1821H19.1796H19.1771H19.1746H19.1721H19.1696H19.1671H19.1646H19.1621H19.1597H19.1572H19.1547H19.1522H19.1497H19.1472H19.1447H19.1422H19.1397H19.1373H19.1348H19.1323H19.1298H19.1273H19.1248H19.1223H19.1198H19.1173H19.1148H19.1124H19.1099H19.1074H19.1049H19.1024H19.0999H19.0974H19.0949H19.0924H19.09H19.0875H19.085H19.0825H19.08H19.0775H19.075H19.0725H19.07H19.0675H19.0651H19.0626H19.0601H19.0576H19.0551H19.0526H19.0501H19.0476H19.0451H19.0427H19.0402H19.0377H19.0352H19.0327H19.0302H19.0277H19.0252H19.0227H19.0202H19.0178H19.0153H19.0128H19.0103H19.0078H19.0053H19.0028H19.0003H18.9978H18.9954H18.9929H18.9904H18.9879H18.9854H18.9829H18.9804H18.9779H18.9754H18.9729H18.9705H18.968H18.9655H18.963H18.9605H18.958H18.9555H18.953H18.9505H18.9481H18.9456H18.9431H18.9406H18.9381H18.9356H18.9331H18.9306H18.9281H18.9256H18.9232H18.9207H18.9182V22.7017L18.9127 22.7017C18.5129 22.7061 18.1398 22.8379 17.8645 23.1136C17.5893 23.3892 17.4583 23.7622 17.4543 24.1612L20.1924 22.7017ZM20.1924 22.7017C20.1925 22.7017 20.1926 22.7017 20.1927 22.7017M20.1924 22.7017L20.1927 22.7017M30.9822 22.069C30.9711 22.0693 30.9601 22.0701 30.9491 22.0715L30.9822 22.069ZM30.9822 22.069C30.9842 22.095 30.9866 22.1208 30.9891 22.1465C30.9927 22.1848 30.9963 22.2229 30.9983 22.2609L30.987 22.2399L30.9822 22.069ZM18.3017 29.2962C17.3013 29.2014 16.4655 28.8494 15.7749 28.1951L15.7747 28.195M18.3017 29.2962L15.7747 28.195M15.7747 28.195C14.9481 27.4124 14.5235 26.4677 14.5098 25.3522L14.5098 25.3521M15.7747 28.195L14.5098 25.3521M14.5098 25.3521C14.4937 24.0472 14.5001 22.7419 14.5098 21.4319L14.5099 21.4312M14.5098 25.3521L14.5099 21.4312M14.5099 21.4312C14.5163 20.3293 15.3415 19.5068 16.4798 19.5028L14.5099 21.4312ZM22.9162 19.9793L22.9162 19.9791C22.9136 19.7818 22.8539 19.6756 22.7965 19.6191C22.7389 19.5625 22.6298 19.5028 22.4264 19.5028C21.7643 19.5028 21.1028 19.5021 20.4417 19.5014C19.1205 19.5 17.8007 19.4986 16.4799 19.5028L22.9162 19.9793ZM22.9162 19.9793C22.928 20.8285 22.651 21.4994 22.1939 21.9573M22.9162 19.9793L22.1939 21.9573M22.1939 21.9573C21.7362 22.4158 21.0578 22.7009 20.1928 22.7017M22.1939 21.9573L20.1928 22.7017M20.1928 22.7017C20.1928 22.7017 20.1927 22.7017 20.1927 22.7017M20.1928 22.7017H20.1927M26.9105 22.4935L26.9107 22.4931L26.9525 22.5744C26.9411 22.5802 26.9289 22.5836 26.9166 22.5844C26.9043 22.5852 26.8919 22.5835 26.88 22.5793L26.9105 22.4935ZM25.0727 22.9958L25.159 23.0546C25.1503 23.0672 25.1394 23.0776 25.1272 23.0852C25.115 23.0928 25.1016 23.0976 25.088 23.0996L25.0731 22.9984L25.0727 22.9958ZM30.9918 22.4124L31 22.4425V22.5686C30.9987 22.5687 30.9974 22.5688 30.9961 22.5688L30.9918 22.4124Z" stroke="black"/>
<path id="Vector_4" d="M18.7263 13.0864L17.7533 13.0497C17.5171 11.8366 16.6288 11.4232 15.9305 11.5143C15.0933 11.6297 14.5 12.3161 14.5 13.4578V13.4649V13.472V13.4791V13.4862V13.4932V13.5003V13.5074V13.5145V13.5216V13.5287V13.5358V13.5429V13.55V13.5571V13.5642V13.5713V13.5783V13.5854V13.5925V13.5996V13.6067V13.6138V13.6209V13.628V13.6351V13.6422V13.6493V13.6564V13.6634V13.6705V13.6776V13.6847V13.6918V13.6989V13.706V13.7131V13.7202V13.7273V13.7344V13.7415V13.7485V13.7556V13.7627V13.7698V13.7769V13.784V13.7911V13.7982V13.8053V13.8124V13.8195V13.8266V13.8336V13.8407V13.8478V13.8549V13.862V13.8691V13.8762V13.8833V13.8904V13.8975V13.9046V13.9117V13.9187V13.9258V13.9329V13.94V13.9471V13.9542V13.9613V13.9684V13.9755V13.9826V13.9897V13.9968V14.0038V14.0109V14.018V14.0251V14.0322V14.0393V14.0464V14.0535V14.0606V14.0677V14.0748V14.0819V14.0889V14.096V14.1031V14.1102V14.1173V14.1244V14.1315V14.1386V14.1457V14.1528V14.1599V14.167V14.1741V14.1811V14.1882V14.1953V14.2024V14.2095V14.2166V14.2237V14.2308V14.2379V14.245V14.2521V14.2592V14.2662V14.2733V14.2804V14.2875V14.2946V14.3017V14.3088V14.3159V14.323V14.3301V14.3372V14.3443V14.3513V14.3584V14.3655V14.3726V14.3797V14.3868V14.3939V14.401V14.4081V14.4152V14.4223V14.4294V14.4364V14.4435V14.4506V14.4577V14.4648V14.4719V14.479V14.4861V14.4932V14.5003V14.5074V14.5145V14.5215V14.5286V14.5357V14.5428V14.5499V14.557V14.5641V14.5712V14.5783V14.5854V14.5925V14.5996V14.6066V14.6137V14.6208V14.6279V14.635V14.6421V14.6492V14.6563V14.6634V14.6705V14.6776V14.6847V14.6917V14.6988V14.7059V14.713V14.7201V14.7272V14.7343V14.7414V14.7485V14.7556V14.7627V14.7698V14.7768V14.7839V14.791V14.7981V14.8052V14.8123V14.8194V14.8265V14.8336V14.8407V14.8478V14.8549V14.8619V14.869V14.8761V14.8832V14.8903V14.8974V14.9045V14.9116V14.9187V14.9258V14.9329V14.94V14.9471V14.9541V14.9612V14.9683V14.9754V14.9825V14.9896V14.9967V15.0038V15.0109V15.018V15.0251V15.0322V15.0392V15.0463V15.0534V15.0605V15.0676V15.0747V15.0818V15.0889V15.096V15.1031V15.1102V15.1173V15.1243V15.1314V15.1385V15.1456V15.1527V15.1598V15.1669V15.174V15.1811V15.1882V15.1953V15.2024V15.2094V15.2165V15.2236V15.2307V15.2378V15.2449V15.252V15.2591V15.2662V15.2733V15.2804V15.2875V15.2945V15.3016V15.3087V15.3158V15.3229V15.33V15.3371V15.3442V15.3513V15.3584V15.3655V15.3726V15.3796V15.3867V15.3938V15.4009V15.408V15.4151V15.4222V15.4293V15.4364V15.4435V15.4506V15.4577V15.4647V15.4718V15.4789V15.486V15.4931V15.5002V15.5073V15.5144V15.5215V15.5286V15.5357V15.5428V15.5498V15.5569V15.564V15.5711V15.5782V15.5853V15.5924V15.5995V15.6066V15.6137V15.6208V15.6279V15.6349V15.642V15.6491V15.6562V15.6633V15.6704V15.6775V15.6846V15.6917V15.6988V15.7059V15.713V15.7201V15.7271V15.7342V15.7413V15.7484V15.7555V15.7626V15.7697V15.7768V15.7839V15.791V15.7981V15.8052V15.8122V15.8193V15.8264V15.8335V15.8406V15.8477V15.8548V15.8619V15.869V15.8761V15.8832V15.8903V15.8973V15.9044V15.9115V15.9186V15.9257V15.9328V15.9399V15.947V15.9541V15.9612V15.9683V15.9754V15.9824V15.9895V15.9966V16.0037V16.0108V16.0179V16.025V16.0321V16.0392V16.0463V16.0534V16.0605V16.0675V16.0746V16.0817V16.0888V16.0959V16.103V16.1101V16.1172V16.1243V16.1314V16.1385V16.1456V16.1526V16.1597V16.1668V16.1739V16.181V16.1881V16.1952V16.2023V16.2094V16.2165V16.2236V16.2307V16.2377V16.2448V16.2519V16.259V16.2661V16.2732V16.2803V16.2874V16.2945V16.3016V16.3087V16.3158V16.3228V16.3299V16.337V16.3441V16.3512V16.3583V16.3654V16.3725V16.3796V16.3867V16.3938V16.4009V16.4079V16.415V16.4221V16.4292V16.4363V16.4434V16.4505V16.4576V16.4647V16.4718V16.4789V16.486V16.4931V16.5001V16.5072V16.5143V16.5214V16.5285V16.5356V16.5427V16.5498V16.5569V16.564V16.5711V16.5782V16.5852V16.5923V16.5994V16.6065V16.6136V16.6207V16.6278V16.6349V16.642V16.6491V16.6562V16.6633V16.6703V16.6774V16.6845V16.6916V16.6987V16.7058V16.7129V16.7157C14.5998 16.6929 14.7031 16.6694 14.8135 16.6459C15.1222 16.5799 15.4558 16.5209 15.8014 16.5142L15.8021 16.5142C17.8905 16.4766 19.9789 16.4888 22.0603 16.5011L22.1705 16.5017L22.1714 16.5017C24.0872 16.5165 25.4962 18.0769 25.5134 20.0296L25.5134 20.034H25.5134V20.0358V20.0375V20.0392V20.0409V20.0427V20.0444V20.0461V20.0479V20.0496V20.0513V20.053V20.0548V20.0565V20.0582V20.06V20.0617V20.0634V20.0651V20.0669V20.0686V20.0703V20.0721V20.0738V20.0755V20.0772V20.079V20.0807V20.0824V20.0841V20.0859V20.0876V20.0893V20.0911V20.0928V20.0945V20.0963V20.098V20.0997V20.1014V20.1032V20.1049V20.1066V20.1084V20.1101V20.1118V20.1135V20.1153V20.117V20.1187V20.1205V20.1222V20.1239V20.1257V20.1274V20.1291V20.1308V20.1326V20.1343V20.136V20.1378V20.1395V20.1412V20.143V20.1447V20.1464V20.1482V20.1499V20.1516V20.1534V20.1551V20.1568V20.1586V20.1603V20.162V20.1638V20.1655V20.1672V20.169V20.1707V20.1724V20.1742V20.1759V20.1776V20.1794V20.1811V20.1828V20.1846V20.1863V20.188V20.1898V20.1915V20.1932V20.195V20.1961C25.618 20.1235 25.7091 20.042 25.7887 19.9522C26.0008 19.713 26.1588 19.3847 26.2508 18.9361L27.2227 18.904C27.2365 18.9543 27.2499 19.0021 27.2624 19.047C27.2769 19.0987 27.2903 19.1466 27.302 19.1898L27.3021 19.1903C27.5449 20.0882 28.3169 20.5952 29.0586 20.4846L29.067 20.4833L29.067 20.4834C29.4533 20.4324 29.8148 20.2322 30.0798 19.9121C30.3454 19.5913 30.4937 19.1738 30.4905 18.7382L30.4905 18.7316L30.4905 18.7316C30.5014 16.8906 30.5048 15.0508 30.4905 13.2116C30.4835 12.7862 30.3321 12.3816 30.0699 12.071C29.8079 11.7607 29.4542 11.5659 29.0764 11.514C28.6989 11.4622 28.3139 11.5551 27.9905 11.781C27.6664 12.0075 27.424 12.3545 27.3152 12.7631L27.3145 12.7659C27.2981 12.8261 27.2796 12.8898 27.2596 12.959C27.248 12.9993 27.2358 13.0414 27.2231 13.0858L26.7067 14.8995L26.2567 13.0681C26.0047 12.0427 25.4818 11.5768 24.8238 11.5224L18.7263 13.0864ZM18.7263 13.0864C18.8781 12.5327 19.0985 12.1484 19.3524 11.9011C19.5989 11.6609 19.899 11.5275 20.2676 11.5055C20.6808 11.4812 20.9919 11.5802 21.2549 11.7944C21.5327 12.0206 21.7977 12.409 22.0369 13.0364L22.5708 14.4365M18.7263 13.0864L22.5708 14.4365M22.5708 14.4365L22.9846 12.9963M22.5708 14.4365L22.9846 12.9963M22.9846 12.9963C23.1474 12.4297 23.3843 12.0501 23.6684 11.8212M22.9846 12.9963L23.6684 11.8212M23.6684 11.8212C23.9424 11.6004 24.3092 11.4801 24.8237 11.5224L23.6684 11.8212Z" stroke="black"/>
</g>
</svg>
