<svg width="25" height="24" viewBox="0 0 25 24" fill="none" xmlns="http://www.w3.org/2000/svg">
<g id="li:pie-chart">
<path id="Vector (Stroke)" fill-rule="evenodd" clip-rule="evenodd" d="M9.54157 2.43001C9.76246 2.93619 9.53118 3.52561 9.025 3.7465C7.67759 4.33448 6.49473 5.24359 5.57984 6.39432C4.66494 7.54506 4.04587 8.9024 3.77673 10.3477C3.5076 11.7929 3.59661 13.2821 4.03597 14.6851C4.47533 16.088 5.25167 17.3619 6.29711 18.3955C7.34256 19.4291 8.62528 20.1908 10.0331 20.6141C11.441 21.0374 12.9311 21.1094 14.3732 20.8238C15.8153 20.5382 17.1655 19.9036 18.3057 18.9757C19.4459 18.0477 20.3414 16.8545 20.914 15.5005C21.1291 14.9918 21.7158 14.7538 22.2245 14.9689C22.7332 15.184 22.9712 15.7708 22.7561 16.2794C22.0563 17.9344 20.9617 19.3927 19.5681 20.5269C18.1745 21.6611 16.5243 22.4366 14.7618 22.7857C12.9992 23.1348 11.1779 23.0468 9.45724 22.5294C7.73653 22.012 6.16877 21.081 4.891 19.8178C3.61323 18.5545 2.66437 16.9975 2.12738 15.2828C1.59038 13.5681 1.48159 11.748 1.81053 9.98153C2.13947 8.21509 2.89612 6.55612 4.01433 5.14966C5.13253 3.74321 6.57825 2.63208 8.22508 1.91343C8.73127 1.69254 9.32068 1.92382 9.54157 2.43001Z" fill="#484C52"/>
<path id="Vector (Stroke)_2" fill-rule="evenodd" clip-rule="evenodd" d="M11.9179 1.29289C12.1054 1.10536 12.3598 1 12.625 1C14.0695 1 15.4999 1.28452 16.8345 1.83733C18.1691 2.39013 19.3817 3.20038 20.4032 4.22183C21.4246 5.24327 22.2349 6.4559 22.7877 7.79048C23.3405 9.12506 23.625 10.5555 23.625 12C23.625 12.5523 23.1773 13 22.625 13H12.625C12.0727 13 11.625 12.5523 11.625 12V2C11.625 1.73478 11.7304 1.48043 11.9179 1.29289ZM13.625 3.05573V11H21.5693C21.4755 10.1614 21.2641 9.33849 20.9399 8.55585C20.4876 7.46392 19.8247 6.47177 18.989 5.63604C18.1532 4.80031 17.1611 4.13738 16.0692 3.68508C15.2865 3.3609 14.4636 3.14949 13.625 3.05573Z" fill="#484C52"/>
</g>
</svg>
