<svg width="25" height="24" viewBox="0 0 25 24" fill="none" xmlns="http://www.w3.org/2000/svg">
<g id="li:user">
<path id="Vector (Stroke)" fill-rule="evenodd" clip-rule="evenodd" d="M5.33947 15.4645C6.27715 14.5268 7.54892 14 8.875 14H16.875C18.2011 14 19.4729 14.5268 20.4105 15.4645C21.3482 16.4021 21.875 17.6739 21.875 19V21C21.875 21.5523 21.4273 22 20.875 22C20.3227 22 19.875 21.5523 19.875 21V19C19.875 18.2044 19.5589 17.4413 18.9963 16.8787C18.4337 16.3161 17.6706 16 16.875 16H8.875C8.07935 16 7.31629 16.3161 6.75368 16.8787C6.19107 17.4413 5.875 18.2044 5.875 19V21C5.875 21.5523 5.42728 22 4.875 22C4.32272 22 3.875 21.5523 3.875 21V19C3.875 17.6739 4.40178 16.4021 5.33947 15.4645Z" fill="#484C52"/>
<path id="Vector (Stroke)_2" fill-rule="evenodd" clip-rule="evenodd" d="M12.875 4C11.2181 4 9.875 5.34315 9.875 7C9.875 8.65685 11.2181 10 12.875 10C14.5319 10 15.875 8.65685 15.875 7C15.875 5.34315 14.5319 4 12.875 4ZM7.875 7C7.875 4.23858 10.1136 2 12.875 2C15.6364 2 17.875 4.23858 17.875 7C17.875 9.76142 15.6364 12 12.875 12C10.1136 12 7.875 9.76142 7.875 7Z" fill="#484C52"/>
</g>
</svg>
